<svg xmlns="http://www.w3.org/2000/svg" version="1.1" xmlns:xlink="http://www.w3.org/1999/xlink" xmlns:svgjs="http://svgjs.dev/svgjs" width="2000" height="1020" viewBox="0 0 2000 1020"><g transform="matrix(1,0,0,1,-1.2121212121212466,0.8928334449315116)"><svg viewBox="0 0 396 202" data-background-color="#f47d16" preserveAspectRatio="xMidYMid meet" height="1020" width="2000" xmlns="http://www.w3.org/2000/svg" xmlns:xlink="http://www.w3.org/1999/xlink"><g id="tight-bounds" transform="matrix(1,0,0,1,0.2400000000000091,-0.17681603517270617)"><svg viewBox="0 0 395.52 202.3536320703454" height="202.3536320703454" width="395.52"><g><svg viewBox="0 0 397.4975999999999 203.3654002306971" height="202.3536320703454" width="395.52"><g><rect width="397.4975999999999" height="6.228813611291681" x="0" y="111.7606839197005" fill="#dee5ed" opacity="1" stroke-width="0" stroke="transparent" fill-opacity="1" class="rect-qz-0" data-fill-palette-color="primary" rx="1%" id="qz-0" data-palette-color="#dee5ed"></rect></g><g transform="matrix(1,0,0,1,0.9887999999999693,134.29529232494946)"><svg viewBox="0 0 395.52 69.07010790574763" height="69.07010790574763" width="395.52"><g id="textblocktransform"><svg viewBox="0 0 395.52 69.07010790574763" height="69.07010790574763" width="395.52" id="textblock"><g><svg viewBox="0 0 395.52 69.07010790574763" height="69.07010790574763" width="395.52"><g transform="matrix(1,0,0,1,0,0)"><svg width="395.52" viewBox="3 -38.11 221.71 38.72" height="69.07010790574763" data-palette-color="#dee5ed"><path d="M30.59-10.79L30.64-0.9Q26.37 0.61 21.9 0.61L21.9 0.61Q18.87 0.61 16.13-0.06 13.38-0.73 10.97-2.2 8.57-3.66 6.8-5.76 5.03-7.86 4.02-10.9 3-13.94 3-17.6L3-17.6Q3-22.19 4.49-25.89 5.98-29.59 8.56-31.95 11.13-34.3 14.55-35.55 17.97-36.79 21.9-36.79L21.9-36.79Q26.05-36.79 30.3-35.45L30.3-35.45 30.25-26.15 29.25-26.15 26.2-33.11Q24.15-34.01 20.8-34.01L20.8-34.01Q18.85-34.01 17.11-33.5 15.38-32.98 13.78-31.79 12.18-30.59 11.02-28.77 9.86-26.95 9.18-24.17 8.5-21.39 8.5-17.9L8.5-17.9Q8.5-14.18 9.58-11.15 10.67-8.11 12.55-6.14 14.43-4.17 16.91-3.11 19.38-2.05 22.19-2.05L22.19-2.05Q24.68-2.05 26.9-2.76L26.9-2.76 29.59-10.79 30.59-10.79ZM43.65-2.76L49.41-1 49.41 0 34.67 0 34.67-1 39.16-2.76 39.16-21.09 34.67-22.85 34.67-23.85 43.16-25.61 43.65-25.1 43.65-22.09Q47.36-25.61 53.42-25.61L53.42-25.61 53.42-20.19 52.41-19.85 48.85-21.8Q47.75-21.8 46.34-21.33 44.92-20.85 43.65-19.95L43.65-19.95 43.65-2.76ZM59.39-21.09L54.9-22.85 54.9-23.85 63.4-25.61 63.89-25.1 63.89-8.84Q63.89-5.35 65.11-3.97 66.33-2.59 69.18-2.59L69.18-2.59Q72.55-2.59 75.09-4.71L75.09-4.71 75.09-21.09 70.6-22.85 70.6-23.85 79.1-25.61 79.58-25.1 79.58-3.39 84.1-2.15 84.1-1.25 75.61 0.61 75.09 0.1 75.09-2.81Q73.41-1.2 71.19-0.29 68.96 0.61 66.74 0.61L66.74 0.61Q65.28 0.61 63.98 0.15 62.69-0.32 61.65-1.26 60.62-2.2 60-3.76 59.39-5.32 59.39-7.35L59.39-7.35 59.39-21.09ZM109.64-3.39L114.13-2.15 114.13-1.25 105.63 0.61 105.14 0.1 105.14-2.25Q102.21 0.61 98.23 0.61L98.23 0.61Q96.21 0.61 94.33-0.31 92.45-1.22 91.01-2.87 89.57-4.52 88.7-7.02 87.83-9.52 87.83-12.5L87.83-12.5Q87.83-15.41 88.82-17.87 89.81-20.34 91.5-22.01 93.18-23.68 95.48-24.62 97.77-25.56 100.33-25.56L100.33-25.56Q102.65-25.56 105.14-24.76L105.14-24.76 105.14-33.59 100.63-35.35 100.63-36.35 109.15-38.11 109.64-37.6 109.64-3.39ZM105.14-4.91L105.14-4.91 105.14-21.85Q102.87-23.1 100.85-23.1L100.85-23.1Q97.4-23.1 95.17-20.06 92.94-17.02 92.94-12.5L92.94-12.5Q92.94-7.76 94.78-4.88 96.62-2 99.94-2L99.94-2Q103-2 105.14-4.91ZM136.88-3.39L141.4-2.15 141.4-1.25 136.1 0.39Q134.54 0.73 133.46 0.04 132.39-0.66 132.39-2.34L132.39-2.34Q129.21 0.61 124.94 0.61L124.94 0.61Q121.4 0.61 119.64-1.22 117.89-3.05 117.89-5.81L117.89-5.81Q117.89-7.89 118.81-9.48 119.74-11.08 121.18-12.04 122.62-12.99 124.62-13.62 126.63-14.26 128.48-14.5 130.34-14.75 132.39-14.79L132.39-14.79 132.39-17.14Q132.39-20.56 131.31-21.9 130.24-23.24 127.75-23.24L127.75-23.24Q125.87-23.24 123.33-22.66L123.33-22.66 120.74-16.99 119.55-16.99 119.55-23.95Q121.74-24.73 124.18-25.17 126.63-25.61 128.48-25.61L128.48-25.61Q132.51-25.61 134.69-23.99 136.88-22.36 136.88-18.65L136.88-18.65 136.88-3.39ZM126.99-2.25L126.99-2.25Q128.38-2.25 129.85-2.92 131.31-3.59 132.39-4.76L132.39-4.76 132.39-12.79Q127.5-12.57 124.94-10.8 122.38-9.03 122.38-6.3L122.38-6.3Q122.38-4.2 123.72-3.22 125.06-2.25 126.99-2.25ZM144.62-25L163.88-25 163.88-22.51 149.28-2.49 159.78-2.49 162.63-8.5 163.63-8.5 163.63 0 144.37 0 144.37-2.49 158.97-22.51 148.47-22.51 145.62-16.5 144.62-16.5 144.62-25ZM179.09-25.61L179.09-25.61Q181.87-25.61 184.09-24.66 186.31-23.71 187.85-21.98 189.39-20.26 190.21-17.85 191.03-15.43 191.03-12.5L191.03-12.5Q191.03-9.59 190.22-7.18 189.41-4.76 187.88-3.03 186.34-1.29 184.12-0.34 181.89 0.61 179.09 0.61L179.09 0.61Q176.25 0.61 174.03-0.34 171.81-1.29 170.27-3.03 168.74-4.76 167.93-7.17 167.12-9.57 167.12-12.5L167.12-12.5Q167.12-15.43 167.94-17.85 168.76-20.26 170.3-21.98 171.84-23.71 174.06-24.66 176.28-25.61 179.09-25.61ZM173.76-20.43L173.76-20.43Q171.88-17.38 171.88-12.5L171.88-12.5Q171.88-10.08 172.36-8.07 172.84-6.05 173.75-4.6 174.67-3.15 176.01-2.34 177.35-1.54 179.09-1.54L179.09-1.54Q180.82-1.54 182.19-2.34 183.55-3.15 184.49-4.6 185.43-6.05 185.93-8.07 186.44-10.08 186.44-12.5L186.44-12.5Q186.44-14.89 185.93-16.91 185.43-18.92 184.49-20.37 183.55-21.83 182.19-22.64 180.82-23.46 179.09-23.46L179.09-23.46Q175.62-23.46 173.76-20.43ZM204.01-2.76L208.26-1 208.26 0 195.03 0 195.03-1 199.52-2.76 199.52-21.09 195.03-22.85 195.03-23.85 203.52-25.61 204.01-25.1 204.01-22.14Q205.74-23.75 208.06-24.68 210.38-25.61 212.63-25.61L212.63-25.61Q215.9-25.61 218.06-23.61 220.22-21.61 220.22-17.65L220.22-17.65 220.22-2.76 224.71-1 224.71 0 211.46 0 211.46-1 215.73-2.76 215.73-16.16Q215.73-19.68 214.47-21.04 213.21-22.41 210.16-22.41L210.16-22.41Q206.53-22.41 204.01-20.24L204.01-20.24 204.01-2.76Z" opacity="1" transform="matrix(1,0,0,1,0,0)" fill="#dee5ed" class="wordmark-text-0" data-fill-palette-color="primary" id="text-0"></path></svg></g></svg></g></svg></g></svg></g><g transform="matrix(1,0,0,1,150.81539262764147,0)"><svg viewBox="0 0 95.86681474471698 95.45488912574322" height="95.45488912574322" width="95.86681474471698"><g><svg xmlns="http://www.w3.org/2000/svg" xmlns:xlink="http://www.w3.org/1999/xlink" version="1.1" x="0" y="0" viewBox="5.431999999999997 5.624 89.13499999999999 88.75200000000001" enable-background="new 0 0 100 100" xml:space="preserve" height="95.45488912574322" width="95.86681474471698" class="icon-icon-0" data-fill-palette-color="accent" id="icon-0"><g fill="#dee5ed" data-fill-palette-color="accent"><path fill-rule="evenodd" clip-rule="evenodd" d="M34.664 35.846l-4.884 2.82v5.7l4.884 2.75 4.879-2.761 0.005-5.69L34.664 35.846 34.664 35.846zM63.86 35.846l-4.884 2.82-0.056 5.708 4.94 2.743 4.885-2.75v-5.7L63.86 35.846 63.86 35.846zM49.161 61.248l-4.884 2.68v5.7l4.884 2.75 4.885-2.75v-5.7L49.161 61.248 49.161 61.248zM12.547 70.07l26.888-15.585-0.001-10.066 8.703-5.059L48.15 7.764 44.294 5.71c-12.149 1.686-22.807 8.186-29.818 17.539l0.053 5.701-5.017 2.764c-2.667 5.604-4.08 11.805-4.08 18.326s0.851 12.335 3.27 17.832L12.547 70.07 12.547 70.07zM54.087 94.376c12.944-1.154 24.283-7.889 31.705-17.767l-0.203-4.412L57.971 56.32l-8.81 4.927-8.677-4.899L13.414 72.006l0.059 4.224c7.077 9.285 18.743 16.453 30.835 18.061l4.853-2.774L54.087 94.376 54.087 94.376zM50.203 39.361l8.717 5.009 0.036 10.147 27.519 15.883 4.243-2.277c2.466-5.494 3.849-11.633 3.849-18.084 0-6.612-1.453-12.895-4.245-18.554l-5.075-2.757 0.103-5.672C78.085 13.423 66.869 6.841 54.086 5.624l-3.865 2.121L50.203 39.361 50.203 39.361z" fill="#dee5ed" data-fill-palette-color="accent"></path><rect x="39.436" y="44.35" fill-rule="evenodd" clip-rule="evenodd" width="0.107" height="0.124" fill="#dee5ed" data-fill-palette-color="accent"></rect><rect x="58.916" y="44.365" fill-rule="evenodd" clip-rule="evenodd" width="0.004" height="0.013" fill="#dee5ed" data-fill-palette-color="accent"></rect><rect x="49.159" y="61.242" fill-rule="evenodd" clip-rule="evenodd" width="0.004" height="0.012" fill="#dee5ed" data-fill-palette-color="accent"></rect></g></svg></g></svg></g><g></g></svg></g><defs></defs></svg><rect width="395.52" height="202.3536320703454" fill="none" stroke="none" visibility="hidden"></rect></g></svg></g></svg>