<svg xmlns="http://www.w3.org/2000/svg" version="1.1" xmlns:xlink="http://www.w3.org/1999/xlink" xmlns:svgjs="http://svgjs.dev/svgjs" width="128" height="128" viewBox="0 0 128 128"><g transform="matrix(0.8046875,0,0,0.8046875,12.760752631578946,12.538344281796093)"><svg viewBox="0 0 95 95" data-background-color="#dee5ed" preserveAspectRatio="xMidYMid meet" height="128" width="128" xmlns="http://www.w3.org/2000/svg" xmlns:xlink="http://www.w3.org/1999/xlink"><g id="tight-bounds" transform="matrix(1,0,0,1,-0.24049999999999727,-0.035366085151736115)"><svg viewBox="0 0 95.481 95.07073217030349" height="95.07073217030349" width="95.481"><g><svg viewBox="0 0 95.481 95.07073217030349" height="95.07073217030349" width="95.481"><g><svg viewBox="0 0 95.481 95.07073217030349" height="95.07073217030349" width="95.481"><g id="textblocktransform"><svg viewBox="0 0 95.481 95.07073217030349" height="95.07073217030349" width="95.481" id="textblock"><g><svg viewBox="0 0 95.481 95.07073217030349" height="95.07073217030349" width="95.481"><g><svg viewBox="0 0 95.481 95.07073217030349" height="95.07073217030349" width="95.481"><g><svg xmlns="http://www.w3.org/2000/svg" xmlns:xlink="http://www.w3.org/1999/xlink" version="1.1" x="0" y="0" viewBox="5.431999999999997 5.624 89.13499999999999 88.75200000000001" enable-background="new 0 0 100 100" xml:space="preserve" height="95.07073217030349" width="95.481" class="icon-icon-0" data-fill-palette-color="accent" id="icon-0"><g fill="#f47d16" data-fill-palette-color="accent"><path fill-rule="evenodd" clip-rule="evenodd" d="M34.664 35.846l-4.884 2.82v5.7l4.884 2.75 4.879-2.761 0.005-5.69L34.664 35.846 34.664 35.846zM63.86 35.846l-4.884 2.82-0.056 5.708 4.94 2.743 4.885-2.75v-5.7L63.86 35.846 63.86 35.846zM49.161 61.248l-4.884 2.68v5.7l4.884 2.75 4.885-2.75v-5.7L49.161 61.248 49.161 61.248zM12.547 70.07l26.888-15.585-0.001-10.066 8.703-5.059L48.15 7.764 44.294 5.71c-12.149 1.686-22.807 8.186-29.818 17.539l0.053 5.701-5.017 2.764c-2.667 5.604-4.08 11.805-4.08 18.326s0.851 12.335 3.27 17.832L12.547 70.07 12.547 70.07zM54.087 94.376c12.944-1.154 24.283-7.889 31.705-17.767l-0.203-4.412L57.971 56.32l-8.81 4.927-8.677-4.899L13.414 72.006l0.059 4.224c7.077 9.285 18.743 16.453 30.835 18.061l4.853-2.774L54.087 94.376 54.087 94.376zM50.203 39.361l8.717 5.009 0.036 10.147 27.519 15.883 4.243-2.277c2.466-5.494 3.849-11.633 3.849-18.084 0-6.612-1.453-12.895-4.245-18.554l-5.075-2.757 0.103-5.672C78.085 13.423 66.869 6.841 54.086 5.624l-3.865 2.121L50.203 39.361 50.203 39.361z" fill="#f47d16" data-fill-palette-color="accent"></path><rect x="39.436" y="44.35" fill-rule="evenodd" clip-rule="evenodd" width="0.107" height="0.124" fill="#f47d16" data-fill-palette-color="accent"></rect><rect x="58.916" y="44.365" fill-rule="evenodd" clip-rule="evenodd" width="0.004" height="0.013" fill="#f47d16" data-fill-palette-color="accent"></rect><rect x="49.159" y="61.242" fill-rule="evenodd" clip-rule="evenodd" width="0.004" height="0.012" fill="#f47d16" data-fill-palette-color="accent"></rect></g></svg></g></svg></g></svg></g></svg></g></svg></g><g></g></svg></g><defs></defs></svg><rect width="95.481" height="95.07073217030349" fill="none" stroke="none" visibility="hidden"></rect></g></svg></g></svg>